<svg width="1440" height="1024" viewBox="0 0 1440 1024" fill="none" xmlns="http://www.w3.org/2000/svg">
<rect width="1440" height="1024" fill="url(#paint0_linear)"/>
<path d="M719.5 233C585.019 233 476 342.019 476 476.5H963C963 342.019 853.981 233 719.5 233Z" fill="url(#paint1_linear)"/>
<g opacity="0.5">
<path d="M141.525 477.127L59.9625 502.927H1.125V478.366L6.1875 477.127H141.525ZM148.838 476H6.075L0 477.577V504.053H60.1875L148.838 476Z" fill="white"/>
<path d="M286.088 477.127L224.887 502.927H67.5L149.062 477.127H286.088ZM291.712 476H148.838L60.1875 504.053H225.113L291.712 476Z" fill="white"/>
<path d="M430.538 477.127L389.7 502.927H230.737L291.937 477.127H430.538ZM434.475 476H291.712L225.225 504.053H390.15L434.475 476Z" fill="white"/>
<path d="M574.875 477.127L554.512 502.927H393.975L434.812 477.127H574.875ZM577.237 476H434.475L390.15 504.053H555.075L577.237 476Z" fill="white"/>
<path d="M718.875 477.127V502.927H557.325L577.8 477.127H718.875ZM720 476H577.237L555.075 504.053H720V476Z" fill="white"/>
<path d="M862.2 477.127L882.562 502.927H721.125V477.127H862.2ZM862.762 476H720V504.053H884.925L862.762 476Z" fill="white"/>
<path d="M1005.19 477.127L1046.03 502.927H885.487L865.125 477.127H1005.19ZM1005.53 476H862.763L884.925 504.053H1049.85L1005.53 476Z" fill="white"/>
<path d="M1148.06 477.127L1209.26 502.927H1050.19L1009.46 477.127H1148.06ZM1148.29 476H1005.52L1049.85 504.053H1214.78L1148.29 476Z" fill="white"/>
<path d="M1290.94 477.127L1372.5 502.927H1215.11L1153.91 477.127H1290.94ZM1291.16 476H1148.4L1214.89 504.053H1379.81L1291.16 476Z" fill="white"/>
<path d="M1433.81 477.127L1438.87 478.366V502.927H1380.04L1298.47 477.127H1433.81ZM1433.92 476H1291.16L1379.81 504.053H1440V477.577L1433.92 476Z" fill="white"/>
<path d="M52.875 505.18L1.125 521.516V505.18H52.875ZM60.1875 504.053H0V523.094L60.1875 504.053Z" fill="white"/>
<path d="M219.6 505.18L133.987 541.345H1.125V523.882L60.4125 505.18H219.6ZM225.113 504.053H60.1875L0 523.094V542.472H134.213L225.113 504.053Z" fill="white"/>
<path d="M386.213 505.18L329.175 541.345H139.725L225.338 505.18H386.213ZM390.15 504.053H225.113L134.213 542.472H329.513L390.15 504.053Z" fill="white"/>
<path d="M552.712 505.18L524.137 541.345H333.337L390.375 505.18H552.712ZM555.075 504.053H390.15L329.4 542.472H524.7L555.075 504.053Z" fill="white"/>
<path d="M718.875 505.18V541.345H527.063L555.638 505.18H718.875ZM720 504.053H555.075L524.7 542.472H720V504.053Z" fill="white"/>
<path d="M884.362 505.18L912.938 541.345H721.125V505.18H884.362ZM884.925 504.053H720V542.472H915.3L884.925 504.053Z" fill="white"/>
<path d="M1049.62 505.18L1106.66 541.345H915.862L887.287 505.18H1049.62ZM1049.85 504.053H884.925L915.3 542.472H1110.6L1049.85 504.053Z" fill="white"/>
<path d="M1214.66 505.18L1300.28 541.345H1110.83L1053.79 505.18H1214.66ZM1214.89 504.053H1049.85L1110.6 542.472H1305.9L1214.89 504.053Z" fill="white"/>
<path d="M1379.59 505.18L1438.87 523.882V541.345H1306.01L1220.4 505.18H1379.59ZM1379.81 504.053H1214.89L1305.9 542.472H1440V523.094L1379.81 504.053Z" fill="white"/>
<path d="M1438.88 505.18V521.516L1387.12 505.18H1438.88ZM1440 504.053H1379.81L1440 523.094V504.053Z" fill="white"/>
<path d="M128.588 543.599L2.025 596.889H1.125V543.599H128.588ZM134.213 542.472H0V598.128H2.25L134.213 542.472Z" fill="white"/>
<path d="M325.575 543.599L241.2 597.002H7.7625L134.437 543.599H325.575ZM329.4 542.472H134.212L2.25 598.128H241.537L329.4 542.472Z" fill="white"/>
<path d="M522.45 543.599L480.262 597.002H245.362L329.737 543.599H522.45V543.599ZM524.7 542.472H329.4L241.425 598.128H480.712L524.7 542.472Z" fill="white"/>
<path d="M718.875 543.599V597.002H483.075L525.263 543.599H718.875ZM720 542.472H524.7L480.712 598.128H720V542.472Z" fill="white"/>
<path d="M914.737 543.599L956.925 597.002H721.125V543.599H914.737ZM915.3 542.472H720V598.128H959.288L915.3 542.472Z" fill="white"/>
<path d="M1110.26 543.599L1194.64 597.002H959.85L917.55 543.599H1110.26ZM1110.6 542.472H915.3L959.288 598.128H1198.57L1110.6 542.472Z" fill="white"/>
<path d="M1305.56 543.599L1432.12 597.002H1198.8L1114.42 543.599H1305.56V543.599ZM1305.79 542.472H1110.6L1198.57 598.128H1437.75L1305.79 542.472Z" fill="white"/>
<path d="M1438.87 543.599V597.002H1437.97L1311.41 543.599H1438.87ZM1440 542.472H1305.79L1437.75 598.128H1440V542.472Z" fill="white"/>
<path d="M2.25 598.016H0V599.03L2.25 598.016Z" fill="white"/>
<path d="M237.6 599.142L102.037 684.993H1.125V599.818L2.475 599.255H237.6V599.142ZM241.537 598.016H2.25L0 598.917V686.007H102.375L241.537 598.016Z" fill="white"/>
<path d="M478.462 599.255L410.625 684.993H106.2L241.762 599.255H478.462ZM480.712 598.128H241.425L102.375 686.119H411.188L480.712 598.128Z" fill="white"/>
<path d="M718.875 599.255V684.993H413.55L481.275 599.255H718.875ZM720 598.128H480.712L411.188 686.119H720V598.128Z" fill="white"/>
<path d="M958.725 599.255L1026.45 684.993H721.125V599.255H958.725ZM959.288 598.128H720V686.119H1028.81L959.288 598.128Z" fill="white"/>
<path d="M1198.24 599.255L1333.8 684.993H1029.38L961.65 599.255H1198.24ZM1198.58 598.128H959.288L1028.81 686.119H1337.62L1198.58 598.128Z" fill="white"/>
<path d="M1437.53 599.142L1438.87 599.706V684.88H1337.96L1202.4 599.142H1437.53V599.142ZM1437.75 598.016H1198.46L1337.62 686.007H1440V598.917L1437.75 598.016Z" fill="white"/>
<path d="M1440 598.016H1437.75L1440 599.03V598.016Z" fill="white"/>
<path d="M98.4375 687.246L1.125 748.761V687.133H98.4375V687.246ZM102.375 686.119H0V750.901L102.375 686.119Z" fill="white"/>
<path d="M408.825 687.246L284.062 845.089H1.125V751.465L102.713 687.246H408.825V687.246ZM411.188 686.119H102.375L0 750.789V846.215H284.625L411.188 686.119Z" fill="white"/>
<path d="M718.875 687.246V845.201H286.875L411.75 687.246H718.875ZM720 686.119H411.188L284.625 846.215H720V686.119Z" fill="white"/>
<path d="M1028.25 687.246L1153.12 845.089H721.125V687.133H1028.25V687.246ZM1028.81 686.119H720V846.328H1155.38L1028.81 686.119Z" fill="white"/>
<path d="M1337.29 687.246L1438.88 751.465V845.089H1155.94L1031.17 687.246H1337.29ZM1337.62 686.119H1028.81L1155.38 846.215H1440V750.789L1337.62 686.119Z" fill="white"/>
<path d="M1438.88 687.246V748.873L1341.56 687.246H1438.88ZM1440 686.119H1337.62L1440 750.901V686.119Z" fill="white"/>
<path d="M282.262 847.342L143.55 1022.87H1.125V847.342H282.262ZM284.625 846.215H0V1024H144.113L284.625 846.215Z" fill="white"/>
<path d="M718.875 847.342V1022.87H146.362L285.075 847.342H718.875ZM720 846.215H284.625L144.112 1024H720V846.215Z" fill="white"/>
<path d="M1154.81 847.342L1293.53 1022.87H721.125V847.342H1154.81ZM1155.38 846.215H720V1024H1295.89L1155.38 846.215Z" fill="white"/>
<path d="M1438.88 847.342V1022.87H1296.45L1157.74 847.342H1438.88ZM1440 846.215H1155.38L1295.89 1024H1440V846.215Z" fill="white"/>
</g>
<defs>
<linearGradient id="paint0_linear" x1="720" y1="-382" x2="720" y2="1562.5" gradientUnits="userSpaceOnUse">
<stop stop-color="#6AD0F0" stop-opacity="0"/>
<stop offset="0.75" stop-color="#F3C2D9"/>
</linearGradient>
<linearGradient id="paint1_linear" x1="719" y1="643.5" x2="719" y2="202.5" gradientUnits="userSpaceOnUse">
<stop stop-color="#F8CCE1"/>
<stop offset="1" stop-color="#FCEED7"/>
</linearGradient>
</defs>
</svg>
